<mxfile host="app.diagrams.net" agent="Mozilla/5.0 (Windows NT 10.0; Win64; x64; rv:138.0) Gecko/20100101 Firefox/138.0" version="27.0.3">
  <diagram name="Page-1" id="97916047-d0de-89f5-080d-49f4d83e522f">
    <mxGraphModel dx="1042" dy="535" grid="1" gridSize="10" guides="1" tooltips="1" connect="1" arrows="1" fold="1" page="1" pageScale="1.5" pageWidth="1600" pageHeight="900" background="none" math="0" shadow="0">
      <root>
        <mxCell id="0" />
        <mxCell id="1" parent="0" />
        <mxCell id="jAg7ZpjS05_7KDQBOUfK-112" value="" style="edgeStyle=orthogonalEdgeStyle;rounded=0;orthogonalLoop=1;jettySize=auto;html=1;" edge="1" parent="1" source="jAg7ZpjS05_7KDQBOUfK-110" target="jAg7ZpjS05_7KDQBOUfK-111">
          <mxGeometry relative="1" as="geometry" />
        </mxCell>
        <mxCell id="jAg7ZpjS05_7KDQBOUfK-110" value="Executive Committe" style="rounded=1;whiteSpace=wrap;html=1;fontSize=18;fontFamily=Verdana;" vertex="1" parent="1">
          <mxGeometry x="1140" y="80" width="120" height="60" as="geometry" />
        </mxCell>
        <mxCell id="jAg7ZpjS05_7KDQBOUfK-111" value="Senate" style="rounded=1;whiteSpace=wrap;html=1;fontSize=18;fontFamily=Verdana;" vertex="1" parent="1">
          <mxGeometry x="1140" y="220" width="120" height="60" as="geometry" />
        </mxCell>
      </root>
    </mxGraphModel>
  </diagram>
</mxfile>
